<svg id="Layer_1" data-name="Layer 1" xmlns="http://www.w3.org/2000/svg" xmlns:xlink="http://www.w3.org/1999/xlink" width="292.73" height="71.26" viewBox="0 0 292.73 71.26"><defs><style>.cls-1{fill:url(#linear-gradient);}.cls-2{fill:url(#linear-gradient-2);}.cls-3{fill:url(#linear-gradient-3);}.cls-4{fill:none;}.cls-5{fill:url(#linear-gradient-4);}</style><linearGradient id="linear-gradient" x1="55.33" y1="18.9" x2="25.66" y2="48.58" gradientUnits="userSpaceOnUse"><stop offset="0" stop-color="#02cfaf"/><stop offset="0.54" stop-color="#07a7da"/><stop offset="1" stop-color="#0b84ff"/></linearGradient><linearGradient id="linear-gradient-2" x1="77.51" y1="9.14" x2="52.86" y2="33.8" xlink:href="#linear-gradient"/><linearGradient id="linear-gradient-3" x1="72.88" y1="-0.6" x2="89.18" y2="15.7" xlink:href="#linear-gradient"/><linearGradient id="linear-gradient-4" x1="107.55" y1="18.92" x2="123.77" y2="18.92" xlink:href="#linear-gradient"/></defs><path class="cls-1" d="M18.11,20.29a7.7,7.7,0,1,0-.6,9.31H46.77V75.69L56.12,67V20.29ZM11.7,28.65a4.1,4.1,0,1,1,4.1-4.1A4.11,4.11,0,0,1,11.7,28.65Z" transform="translate(-4 -4.43)"/><path class="cls-2" d="M72.27,51.06h0V4.53H33.48L24,14H62.51V51.06a7.7,7.7,0,1,0,9.76,0ZM67.39,61.12a4.1,4.1,0,1,1,4.1-4.1A4.11,4.11,0,0,1,67.39,61.12Z" transform="translate(-4 -4.43)"/><polygon class="cls-3" points="73.48 0.1 73.48 26.74 100.22 0 73.48 0.1"/><path class="cls-4" d="M144.65,27.49c-3.59,0-5.73,2.39-6.22,5.87h12.49A6.22,6.22,0,0,0,144.65,27.49Z" transform="translate(-4 -4.43)"/><path class="cls-4" d="M232,27.49c-4.28,0-6.91,3.23-6.91,7.71s2.63,7.71,6.91,7.71,6.92-3.28,6.92-7.71S236.3,27.49,232,27.49Z" transform="translate(-4 -4.43)"/><path d="M155.54,34.5c0-6.41-4.52-11-10.89-11-6.87,0-10.85,4.58-10.85,11.69S138,46.89,145.05,46.89a10.26,10.26,0,0,0,10.39-7.61h-4.77c-1.15,2.09-2.79,3.63-5.62,3.63-3.79,0-6.13-2.48-6.67-6.07h16.91A7.51,7.51,0,0,0,155.54,34.5Zm-17.11-1.14c.49-3.48,2.63-5.87,6.22-5.87a6.22,6.22,0,0,1,6.27,5.87Z" transform="translate(-4 -4.43)"/><path d="M173.9,27.49a6,6,0,0,1,5.78,4.13h4.77a10.31,10.31,0,0,0-10.55-8.11c-6.86,0-11,4.58-11,11.69S167,46.89,174.05,46.89a10.26,10.26,0,0,0,10.4-7.61h-4.77c-1.15,2.09-2.79,3.63-5.63,3.63-4.33,0-6.71-3.28-6.71-7.71S169.72,27.49,173.9,27.49Z" transform="translate(-4 -4.43)"/><path d="M203.36,23.51a8.39,8.39,0,0,0-6.72,3.13V11.57h-4.37V46.4h4.37V34.7c0-4.87,2.39-7.21,5.93-7.21s5.82,2.34,5.82,7.21V46.4h4.38V33.51C212.77,27.29,208.39,23.51,203.36,23.51Z" transform="translate(-4 -4.43)"/><path d="M238.54,26.89a8.44,8.44,0,0,0-7.12-3.38c-6,0-10.84,4.58-10.84,11.69s4.87,11.69,10.84,11.69a8.57,8.57,0,0,0,7.12-3.38V46.4h4.38V24h-4.38Zm-6.57,16c-4.28,0-6.91-3.28-6.91-7.71s2.63-7.71,6.91-7.71,6.92,3.23,6.92,7.71S236.3,42.91,232,42.91Z" transform="translate(-4 -4.43)"/><polygon points="257.32 36.84 250.46 19.58 245.53 19.58 254.79 41.57 251.2 50.11 256.08 50.11 269.02 19.58 264.14 19.58 257.32 36.84"/><polygon points="280.21 38.09 291.41 23.26 291.41 19.58 275.54 19.58 275.54 23.46 286.08 23.46 274.89 38.34 274.89 41.97 291.71 41.97 291.71 38.09 280.21 38.09"/><polygon class="cls-5" points="116.56 16.98 112.18 16.98 107.55 16.98 107.55 20.86 112.18 20.86 116.56 20.86 123.77 20.86 123.77 16.98 116.56 16.98"/><rect x="113.47" y="6.92" width="4.38" height="8.79"/><path d="M124.44,42.52c-2.18,0-2.58-1.2-2.58-2.64V26.56h-4.38V40.48c0,3.88,1.69,5.92,5.77,5.92h4.53V42.52Z" transform="translate(-4 -4.43)"/><path d="M123.38,66H118.7l-1,2.58h-1.53l4-10.73h1.6l4,10.73h-1.55Zm-.49-1.3-1.86-5-1.84,5Z" transform="translate(-4 -4.43)"/><path d="M130.83,68.77a3.28,3.28,0,0,1-3.45-3.6,3.26,3.26,0,0,1,3.4-3.6A3.17,3.17,0,0,1,134,64.06h-1.47a1.84,1.84,0,0,0-1.78-1.27c-1.28,0-2,1-2,2.38a2.09,2.09,0,0,0,2.07,2.37,1.87,1.87,0,0,0,1.73-1.11H134A3.16,3.16,0,0,1,130.83,68.77Z" transform="translate(-4 -4.43)"/><path d="M139.64,68.77a3.28,3.28,0,0,1-3.45-3.6,3.26,3.26,0,0,1,3.41-3.6,3.19,3.19,0,0,1,3.25,2.49h-1.47a1.84,1.84,0,0,0-1.78-1.27c-1.29,0-2,1-2,2.38a2.09,2.09,0,0,0,2.07,2.37,1.89,1.89,0,0,0,1.74-1.11h1.47A3.17,3.17,0,0,1,139.64,68.77Z" transform="translate(-4 -4.43)"/><path d="M148.47,68.77a3.28,3.28,0,0,1-3.46-3.6c0-2.19,1.23-3.6,3.34-3.6A3.25,3.25,0,0,1,151.71,65a2.25,2.25,0,0,1-.08.72h-5.21a2,2,0,0,0,2.05,1.87,1.89,1.89,0,0,0,1.74-1.11h1.47A3.17,3.17,0,0,1,148.47,68.77Zm1.81-4.17a1.92,1.92,0,0,0-1.93-1.81,1.9,1.9,0,0,0-1.92,1.81Z" transform="translate(-4 -4.43)"/><path d="M155.56,57.89V68.62h-1.35V57.89Z" transform="translate(-4 -4.43)"/><path d="M161.47,68.77a3.28,3.28,0,0,1-3.46-3.6c0-2.19,1.22-3.6,3.34-3.6A3.25,3.25,0,0,1,164.71,65a2.25,2.25,0,0,1-.08.72h-5.21a2,2,0,0,0,2.05,1.87,1.86,1.86,0,0,0,1.73-1.11h1.48A3.17,3.17,0,0,1,161.47,68.77Zm1.81-4.17a1.92,1.92,0,0,0-1.93-1.81,1.9,1.9,0,0,0-1.92,1.81Z" transform="translate(-4 -4.43)"/><path d="M168.55,61.72v1.16a2.38,2.38,0,0,1,2.26-1.31v1.59h-.17c-1.23,0-2.09.35-2.09,2.15v3.31H167.2v-6.9Z" transform="translate(-4 -4.43)"/><path d="M179.59,61.72v6.9h-1.35v-.89a2.63,2.63,0,0,1-2.19,1,3.61,3.61,0,0,1,0-7.2,2.58,2.58,0,0,1,2.19,1v-.89Zm-3.37,5.82a2.39,2.39,0,1,0-2.13-2.37A2.14,2.14,0,0,0,176.22,67.54Z" transform="translate(-4 -4.43)"/><path d="M184.07,59.54v2.18h1.67v1.19h-1.67v3.7c0,.44.12.81.79.81h1v1.2H184.5c-1.26,0-1.78-.63-1.78-1.83V62.91h-.88V61.72h.88V59.54Z" transform="translate(-4 -4.43)"/><path d="M191.21,68.77a3.27,3.27,0,0,1-3.46-3.6c0-2.19,1.22-3.6,3.34-3.6A3.25,3.25,0,0,1,194.45,65a2.25,2.25,0,0,1-.08.72h-5.21a2,2,0,0,0,2.05,1.87,1.87,1.87,0,0,0,1.73-1.11h1.47A3.16,3.16,0,0,1,191.21,68.77ZM193,64.6a1.92,1.92,0,0,0-1.93-1.81,1.89,1.89,0,0,0-1.92,1.81Z" transform="translate(-4 -4.43)"/><path d="M202.19,57.89l2.91,5,2.8-5h1.66l-3.76,6.42v4.31h-1.45V64.31l-3.87-6.42Z" transform="translate(-4 -4.43)"/><path d="M209.61,65.17a3.51,3.51,0,1,1,3.51,3.6A3.33,3.33,0,0,1,209.61,65.17Zm3.51,2.37A2.39,2.39,0,1,0,211,65.17,2.14,2.14,0,0,0,213.12,67.54Z" transform="translate(-4 -4.43)"/><path d="M224,68.62v-.85a2.54,2.54,0,0,1-2.07,1,2.89,2.89,0,0,1-2.9-3.08v-4h1.35v3.6c0,1.49.71,2.22,1.8,2.22s1.82-.73,1.82-2.22v-3.6h1.35v6.9Z" transform="translate(-4 -4.43)"/><path d="M229.39,61.72v1.16a2.38,2.38,0,0,1,2.26-1.31v1.59h-.17c-1.23,0-2.09.35-2.09,2.15v3.31h-1.34v-6.9Z" transform="translate(-4 -4.43)"/><path d="M242.29,67.42c1.58,0,2.11-.92,2.11-1.61,0-2.33-5.82-1.53-5.82-5.12,0-1.65,1.19-2.94,3.4-2.94a3.36,3.36,0,0,1,3.6,3.29h-1.53A2,2,0,0,0,242,59.1c-1,0-1.94.52-1.94,1.45,0,2.33,5.84,1.75,5.84,5.28,0,1.41-.9,2.94-3.54,2.94s-3.94-1.26-4.1-3.36h1.59A2.14,2.14,0,0,0,242.29,67.42Z" transform="translate(-4 -4.43)"/><path d="M253.39,68.62v-.85a2.57,2.57,0,0,1-2.07,1,2.89,2.89,0,0,1-2.9-3.08v-4h1.35v3.6c0,1.49.7,2.22,1.79,2.22s1.83-.73,1.83-2.22v-3.6h1.34v6.9Z" transform="translate(-4 -4.43)"/><path d="M260.64,68.77a3.27,3.27,0,0,1-3.45-3.6,3.25,3.25,0,0,1,3.4-3.6,3.17,3.17,0,0,1,3.25,2.49h-1.47a1.84,1.84,0,0,0-1.78-1.27c-1.29,0-2,1-2,2.38a2.09,2.09,0,0,0,2.07,2.37,1.87,1.87,0,0,0,1.73-1.11h1.47A3.17,3.17,0,0,1,260.64,68.77Z" transform="translate(-4 -4.43)"/><path d="M269.45,68.77a3.28,3.28,0,0,1-3.45-3.6,3.26,3.26,0,0,1,3.4-3.6,3.17,3.17,0,0,1,3.25,2.49h-1.47a1.84,1.84,0,0,0-1.78-1.27c-1.28,0-2,1-2,2.38a2.09,2.09,0,0,0,2.07,2.37,1.87,1.87,0,0,0,1.73-1.11h1.47A3.16,3.16,0,0,1,269.45,68.77Z" transform="translate(-4 -4.43)"/><path d="M278.28,68.77a3.28,3.28,0,0,1-3.47-3.6c0-2.19,1.23-3.6,3.35-3.6A3.24,3.24,0,0,1,281.51,65a2.4,2.4,0,0,1-.07.72h-5.22a2,2,0,0,0,2.06,1.87A1.87,1.87,0,0,0,280,66.43h1.47A3.16,3.16,0,0,1,278.28,68.77Zm1.81-4.17a1.92,1.92,0,0,0-1.93-1.81,1.88,1.88,0,0,0-1.92,1.81Z" transform="translate(-4 -4.43)"/><path d="M289.15,66.72c0,.86-.57,2-2.5,2-1.66,0-2.79-.87-2.84-2.42h1.4a1.22,1.22,0,0,0,1.39,1.19c.95,0,1.17-.52,1.17-.82,0-1.29-3.77-.68-3.77-3a2.1,2.1,0,0,1,2.37-2.1A2.32,2.32,0,0,1,288.92,64h-1.38c0-.63-.29-1.17-1.14-1.17-.7,0-1,.39-1,.8C285.36,64.86,289.15,64.49,289.15,66.72Z" transform="translate(-4 -4.43)"/><path d="M296.73,66.72c0,.86-.56,2-2.49,2-1.66,0-2.79-.87-2.84-2.42h1.4a1.21,1.21,0,0,0,1.39,1.19c.95,0,1.17-.52,1.17-.82,0-1.29-3.78-.68-3.78-3a2.11,2.11,0,0,1,2.38-2.1A2.32,2.32,0,0,1,296.51,64h-1.38c0-.63-.3-1.17-1.14-1.17s-1,.39-1,.8C293,64.86,296.73,64.49,296.73,66.72Z" transform="translate(-4 -4.43)"/></svg>