<svg id="Layer_1" data-name="Layer 1" xmlns="http://www.w3.org/2000/svg" xmlns:xlink="http://www.w3.org/1999/xlink" width="512" height="512" viewBox="0 0 512 512"><defs><style>.cls-1{fill:url(#linear-gradient);}.cls-2{fill:url(#linear-gradient-2);}.cls-3{fill:url(#linear-gradient-3);}</style><linearGradient id="linear-gradient" x1="261.31" y1="163.97" x2="132.2" y2="293.08" gradientUnits="userSpaceOnUse"><stop offset="0" stop-color="#02cfaf"/><stop offset="0.54" stop-color="#07a7da"/><stop offset="1" stop-color="#0b84ff"/></linearGradient><linearGradient id="linear-gradient-2" x1="357.8" y1="121.49" x2="250.53" y2="228.76" xlink:href="#linear-gradient"/><linearGradient id="linear-gradient-3" x1="355.06" y1="98.38" x2="425.99" y2="169.31" xlink:href="#linear-gradient"/></defs><path class="cls-1" d="M99.36,170a33.5,33.5,0,1,0-2.61,40.51H224V411l40.72-37.85V170ZM71.49,206.36a17.83,17.83,0,1,1,17.83-17.83A17.83,17.83,0,0,1,71.49,206.36Z"/><path class="cls-2" d="M335,303.87H335V101.44H166.24l-41.12,41.12H292.54V303.87a33.49,33.49,0,1,0,42.44,0Zm-21.22,43.74a17.83,17.83,0,1,1,17.83-17.83A17.83,17.83,0,0,1,313.76,347.61Z"/><polygon class="cls-3" points="357.68 101.44 357.68 217.31 474 101 357.68 101.44"/></svg>