<svg id="Layer_1" data-name="Layer 1" xmlns="http://www.w3.org/2000/svg" xmlns:xlink="http://www.w3.org/1999/xlink" width="300" height="80.67" viewBox="0 0 300 80.67"><defs><style>.cls-1{fill:url(#linear-gradient);}.cls-2{fill:url(#linear-gradient-2);}.cls-3{fill:url(#linear-gradient-3);}.cls-4{fill:none;}.cls-5{fill:#fff;}.cls-6{fill:url(#linear-gradient-4);}</style><linearGradient id="linear-gradient" x1="54.96" y1="19.18" x2="25.29" y2="48.86" gradientUnits="userSpaceOnUse"><stop offset="0" stop-color="#02cfaf"/><stop offset="0.54" stop-color="#07a7da"/><stop offset="1" stop-color="#0b84ff"/></linearGradient><linearGradient id="linear-gradient-2" x1="77.14" y1="9.42" x2="52.49" y2="34.07" xlink:href="#linear-gradient"/><linearGradient id="linear-gradient-3" x1="76.52" y1="4.1" x2="92.82" y2="20.41" xlink:href="#linear-gradient"/><linearGradient id="linear-gradient-4" x1="111.19" y1="23.62" x2="127.41" y2="23.62" xlink:href="#linear-gradient"/></defs><path class="cls-1" d="M17.74,20.56a7.7,7.7,0,1,0-.6,9.31H46.4V76l9.35-8.7V20.56Zm-6.41,8.36a4.1,4.1,0,1,1,4.1-4.09A4.1,4.1,0,0,1,11.33,28.92Z"/><path class="cls-2" d="M71.9,51.34h0V4.81H33.11l-9.45,9.45H62.14V51.34a7.7,7.7,0,1,0,9.76,0ZM67,61.39a4.1,4.1,0,1,1,4.1-4.1A4.1,4.1,0,0,1,67,61.39Z"/><polygon class="cls-3" points="77.12 4.81 77.12 31.44 103.85 4.7 77.12 4.81"/><path class="cls-4" d="M144.28,27.76c-3.59,0-5.72,2.39-6.22,5.88h12.49A6.22,6.22,0,0,0,144.28,27.76Z"/><path class="cls-5" d="M155.17,34.78c0-6.42-4.52-11-10.89-11-6.87,0-10.85,4.58-10.85,11.7s4.18,11.69,11.25,11.69a10.27,10.27,0,0,0,10.39-7.61H150.3c-1.15,2.09-2.79,3.63-5.62,3.63-3.79,0-6.12-2.49-6.67-6.07h16.92A8.16,8.16,0,0,0,155.17,34.78Zm-17.11-1.14c.5-3.49,2.63-5.88,6.22-5.88a6.22,6.22,0,0,1,6.27,5.88Z"/><path class="cls-5" d="M173.53,27.76a6,6,0,0,1,5.78,4.13h4.77a10.32,10.32,0,0,0-10.55-8.11c-6.86,0-11,4.58-11,11.7s4.18,11.69,11.19,11.69a10.27,10.27,0,0,0,10.4-7.61h-4.77c-1.15,2.09-2.79,3.63-5.63,3.63-4.32,0-6.71-3.29-6.71-7.71S169.36,27.76,173.53,27.76Z"/><path class="cls-5" d="M203,23.78a8.4,8.4,0,0,0-6.72,3.14V11.84H191.9V46.67h4.37V35c0-4.88,2.39-7.22,5.93-7.22S208,30.1,208,35V46.67h4.38V33.78C212.4,27.57,208,23.78,203,23.78Z"/><path class="cls-5" d="M238.17,27.17a8.45,8.45,0,0,0-7.12-3.39c-6,0-10.84,4.58-10.84,11.7s4.87,11.69,10.84,11.69a8.57,8.57,0,0,0,7.12-3.38v2.88h4.38V24.28h-4.38Zm-6.57,16c-4.28,0-6.91-3.29-6.91-7.71s2.63-7.72,6.91-7.72,6.92,3.24,6.92,7.72S235.93,43.19,231.6,43.19Z"/><polygon class="cls-5" points="260.96 41.55 254.09 24.28 249.17 24.28 258.42 46.27 254.84 54.82 259.71 54.82 272.65 24.28 267.78 24.28 260.96 41.55"/><polygon class="cls-5" points="283.85 42.79 295.04 27.96 295.04 24.28 279.17 24.28 279.17 28.16 289.72 28.16 278.52 43.04 278.52 46.67 295.34 46.67 295.34 42.79 283.85 42.79"/><polygon class="cls-6" points="120.19 21.68 115.81 21.68 111.19 21.68 111.19 25.56 115.81 25.56 120.19 25.56 127.41 25.56 127.41 21.68 120.19 21.68"/><rect class="cls-5" x="117.11" y="11.62" width="4.38" height="8.79"/><path class="cls-5" d="M124.07,42.79c-2.18,0-2.58-1.19-2.58-2.64V26.83h-4.38V40.75c0,3.88,1.69,5.92,5.77,5.92h4.53V42.79Z"/><path class="cls-5" d="M123,66.32h-4.68l-1,2.57h-1.53l4-10.73h1.6l4,10.73H124ZM122.52,65l-1.86-5-1.83,5Z"/><path class="cls-5" d="M130.46,69.05A3.28,3.28,0,0,1,127,65.44a3.26,3.26,0,0,1,3.4-3.6,3.17,3.17,0,0,1,3.25,2.5h-1.47a1.83,1.83,0,0,0-1.78-1.27c-1.28,0-2,1-2,2.37a2.1,2.1,0,0,0,2.07,2.38,1.88,1.88,0,0,0,1.73-1.12h1.47A3.15,3.15,0,0,1,130.46,69.05Z"/><path class="cls-5" d="M139.27,69.05a3.28,3.28,0,0,1-3.45-3.61,3.26,3.26,0,0,1,3.41-3.6,3.19,3.19,0,0,1,3.25,2.5H141a1.83,1.83,0,0,0-1.78-1.27c-1.29,0-2,1-2,2.37a2.1,2.1,0,0,0,2.07,2.38A1.89,1.89,0,0,0,141,66.7h1.47A3.17,3.17,0,0,1,139.27,69.05Z"/><path class="cls-5" d="M148.1,69.05a3.29,3.29,0,0,1-3.46-3.61c0-2.19,1.23-3.6,3.34-3.6a3.25,3.25,0,0,1,3.36,3.39,2.36,2.36,0,0,1-.08.72h-5.21a2,2,0,0,0,2,1.87,1.89,1.89,0,0,0,1.74-1.12h1.47A3.17,3.17,0,0,1,148.1,69.05Zm1.81-4.17A1.92,1.92,0,0,0,148,63.07a1.89,1.89,0,0,0-1.92,1.81Z"/><path class="cls-5" d="M155.19,58.16V68.89h-1.35V58.16Z"/><path class="cls-5" d="M161.1,69.05a3.29,3.29,0,0,1-3.46-3.61c0-2.19,1.22-3.6,3.34-3.6a3.25,3.25,0,0,1,3.36,3.39,2.36,2.36,0,0,1-.08.72h-5.21a2,2,0,0,0,2,1.87,1.87,1.87,0,0,0,1.73-1.12h1.48A3.17,3.17,0,0,1,161.1,69.05Zm1.81-4.17A1.92,1.92,0,0,0,161,63.07a1.89,1.89,0,0,0-1.92,1.81Z"/><path class="cls-5" d="M168.18,62v1.17a2.37,2.37,0,0,1,2.26-1.32v1.6h-.17c-1.23,0-2.09.35-2.09,2.14v3.31h-1.34V62Z"/><path class="cls-5" d="M179.22,62v6.9h-1.35V68a2.63,2.63,0,0,1-2.19,1,3.62,3.62,0,0,1,0-7.21,2.6,2.6,0,0,1,2.19,1V62Zm-3.37,5.83a2.39,2.39,0,1,0-2.13-2.38A2.14,2.14,0,0,0,175.85,67.82Z"/><path class="cls-5" d="M183.7,59.82V62h1.67v1.2H183.7v3.69c0,.45.12.82.79.82h1v1.19h-1.39c-1.26,0-1.78-.63-1.78-1.82V63.19h-.88V62h.88V59.82Z"/><path class="cls-5" d="M190.84,69.05a3.28,3.28,0,0,1-3.46-3.61c0-2.19,1.22-3.6,3.34-3.6a3.25,3.25,0,0,1,3.36,3.39A2.36,2.36,0,0,1,194,66h-5.21a2,2,0,0,0,2.05,1.87,1.88,1.88,0,0,0,1.73-1.12H194A3.15,3.15,0,0,1,190.84,69.05Zm1.81-4.17a1.92,1.92,0,0,0-1.93-1.81,1.88,1.88,0,0,0-1.92,1.81Z"/><path class="cls-5" d="M201.82,58.16l2.91,5,2.8-5h1.66l-3.76,6.42v4.31H204V64.58l-3.87-6.42Z"/><path class="cls-5" d="M209.24,65.44a3.51,3.51,0,1,1,3.51,3.61A3.33,3.33,0,0,1,209.24,65.44Zm3.51,2.38a2.39,2.39,0,1,0-2.13-2.38A2.14,2.14,0,0,0,212.75,67.82Z"/><path class="cls-5" d="M223.63,68.89v-.84a2.57,2.57,0,0,1-2.07,1,2.89,2.89,0,0,1-2.9-3.09V62H220V65.6c0,1.48.71,2.22,1.8,2.22s1.82-.74,1.82-2.22V62H225v6.9Z"/><path class="cls-5" d="M229,62v1.17a2.34,2.34,0,0,1,2.25-1.32v1.6h-.17c-1.23,0-2.08.35-2.08,2.14v3.31h-1.35V62Z"/><path class="cls-5" d="M241.92,67.7c1.58,0,2.11-.92,2.11-1.61,0-2.33-5.82-1.54-5.82-5.12,0-1.66,1.19-2.95,3.4-2.95a3.36,3.36,0,0,1,3.6,3.3h-1.53a2,2,0,0,0-2.05-2c-1,0-1.94.52-1.94,1.46,0,2.33,5.84,1.75,5.84,5.27,0,1.41-.9,3-3.54,3s-3.94-1.26-4.1-3.36h1.59A2.15,2.15,0,0,0,241.92,67.7Z"/><path class="cls-5" d="M253,68.89v-.84a2.6,2.6,0,0,1-2.07,1,2.89,2.89,0,0,1-2.9-3.09V62h1.35V65.6c0,1.48.7,2.22,1.79,2.22S253,67.08,253,65.6V62h1.34v6.9Z"/><path class="cls-5" d="M260.27,69.05a3.28,3.28,0,0,1-3.45-3.61,3.25,3.25,0,0,1,3.4-3.6,3.17,3.17,0,0,1,3.25,2.5H262a1.83,1.83,0,0,0-1.78-1.27c-1.29,0-2,1-2,2.37s.73,2.38,2.07,2.38A1.88,1.88,0,0,0,262,66.7h1.47A3.17,3.17,0,0,1,260.27,69.05Z"/><path class="cls-5" d="M269.08,69.05a3.28,3.28,0,0,1-3.45-3.61,3.26,3.26,0,0,1,3.4-3.6,3.17,3.17,0,0,1,3.25,2.5h-1.47A1.83,1.83,0,0,0,269,63.07c-1.28,0-2,1-2,2.37a2.1,2.1,0,0,0,2.07,2.38,1.88,1.88,0,0,0,1.73-1.12h1.47A3.15,3.15,0,0,1,269.08,69.05Z"/><path class="cls-5" d="M277.91,69.05a3.29,3.29,0,0,1-3.47-3.61c0-2.19,1.23-3.6,3.35-3.6a3.24,3.24,0,0,1,3.35,3.39,2.52,2.52,0,0,1-.07.72h-5.21a2,2,0,0,0,2.05,1.87,1.88,1.88,0,0,0,1.73-1.12h1.47A3.16,3.16,0,0,1,277.91,69.05Zm1.81-4.17a1.92,1.92,0,0,0-1.93-1.81,1.88,1.88,0,0,0-1.92,1.81Z"/><path class="cls-5" d="M288.78,67c0,.86-.57,2.06-2.5,2.06-1.66,0-2.79-.88-2.84-2.43h1.4a1.22,1.22,0,0,0,1.39,1.2c.95,0,1.17-.52,1.17-.83,0-1.29-3.77-.67-3.77-3a2.1,2.1,0,0,1,2.37-2.1,2.32,2.32,0,0,1,2.55,2.39h-1.38c0-.63-.29-1.16-1.14-1.16-.7,0-1,.38-1,.79C285,65.14,288.78,64.77,288.78,67Z"/><path class="cls-5" d="M296.37,67c0,.86-.57,2.06-2.5,2.06-1.66,0-2.79-.88-2.84-2.43h1.4a1.22,1.22,0,0,0,1.39,1.2c.95,0,1.17-.52,1.17-.83,0-1.29-3.78-.67-3.78-3a2.11,2.11,0,0,1,2.38-2.1,2.32,2.32,0,0,1,2.55,2.39h-1.38c0-.63-.3-1.16-1.14-1.16s-1,.38-1,.79C292.58,65.14,296.37,64.77,296.37,67Z"/></svg>